{
  "source": "C:\\Users\\Peter\\Desktop\\stuff\\MIUN\\quantitative_research\\video_compression\\videos\\BVI-HD\\CarpetCircleFast_1920x1080_60fps.mp4",
  "output": "C:\\Users\\Peter\\Desktop\\stuff\\MIUN\\quantitative_research\\video_compression\\compressed_videos\\BVI-HD\\vp9\\12\\CarpetCircleFast_1920x1080_60fps_vp9.webm",
  "codec": "vp9",
  "ok": "Input #0, mov,mp4,m4a,3gp,3g2,mj2, from 'C:\\Users\\Peter\\Desktop\\stuff\\MIUN\\quantitative_research\\video_compression\\videos\\BVI-HD\\CarpetCircleFast_1920x1080_60fps.mp4':\n  Metadata:\n    major_brand     : isom\n    minor_version   : 512\n    compatible_brands: isomiso2avc1mp41\n    encoder         : Lavf54.28.101\n  Duration: 00:00:05.00, start: 0.000000, bitrate: 324759 kb/s\n  Stream #0:0[0x1](und): Video: h264 (High 4:4:4 Predictive) (avc1 / 0x31637661), yuv420p(progressive), 1920x1080, 324754 kb/s, 60 fps, 60 tbr, 60 tbn (default)\n    Metadata:\n      handler_name    : VideoHandler\n      vendor_id       : [0][0][0][0]\n[out#0/webm @ 0000026c6b651280] Codec AVOption b:a (set bitrate (in bits/s)) has not been used for any stream. The most likely reason is either wrong type (e.g. a video option with no video streams) or that it is a private option of some decoder which was not actually used for any stream.\nStream mapping:\n  Stream #0:0 -> #0:0 (h264 (native) -> vp9 (libvpx-vp9))\nPress [q] to stop, [?] for help\n[libvpx-vp9 @ 0000026c6c004900] v1.15.2-100-g40561f514\nOutput #0, webm, to 'C:\\Users\\Peter\\Desktop\\stuff\\MIUN\\quantitative_research\\video_compression\\compressed_videos\\BVI-HD\\vp9\\12\\CarpetCircleFast_1920x1080_60fps_vp9.webm':\n  Metadata:\n    major_brand     : isom\n    minor_version   : 512\n    compatible_brands: isomiso2avc1mp41\n    encoder         : Lavf62.3.100\n  Stream #0:0(und): Video: vp9, yuv420p(tv, progressive), 1920x1080, q=2-31, 12000 kb/s, 60 fps, 1k tbn (default)\n    Metadata:\n      encoder         : Lavc62.11.100 libvpx-vp9\n      handler_name    : VideoHandler\n      vendor_id       : [0][0][0][0]\n    Side data:\n      cpb: bitrate max/min/avg: 0/0/0 buffer size: 12000000 vbv_delay: N/A\nframe=    0 fps=0.0 q=0.0 size=       0KiB time=N/A bitrate=N/A speed=N/A elapsed=0:00:00.54    \nframe=    4 fps=3.1 q=26.0 size=       1KiB time=00:00:00.06 bitrate=  76.0kbits/s speed=0.052x elapsed=0:00:01.28    \nframe=    8 fps=4.4 q=24.0 size=       1KiB time=00:00:00.13 bitrate=  38.0kbits/s speed=0.0736x elapsed=0:00:01.81    \nframe=   11 fps=4.7 q=25.0 size=       1KiB time=00:00:00.18 bitrate=  27.6kbits/s speed=0.0778x elapsed=0:00:02.35    \nframe=   14 fps=4.9 q=26.0 size=       1KiB time=00:00:00.23 bitrate=  21.7kbits/s speed=0.0812x elapsed=0:00:02.87    \nframe=   17 fps=5.0 q=17.0 size=       1KiB time=00:00:00.28 bitrate=  17.9kbits/s speed=0.0825x elapsed=0:00:03.43    \nframe=   20 fps=5.0 q=24.0 size=       1KiB time=00:00:00.33 bitrate=  15.2kbits/s speed=0.0837x elapsed=0:00:03.98    \nframe=   23 fps=5.1 q=15.0 size=       1KiB time=00:00:00.38 bitrate=  13.2kbits/s speed=0.0852x elapsed=0:00:04.50    \nframe=   25 fps=4.9 q=13.0 size=       1KiB time=00:00:00.41 bitrate=  12.2kbits/s speed=0.0819x elapsed=0:00:05.08    \nframe=   28 fps=4.9 q=14.0 size=       1KiB time=00:00:00.46 bitrate=  10.9kbits/s speed=0.0821x elapsed=0:00:05.68    \nframe=   31 fps=5.0 q=28.0 size=       1KiB time=00:00:00.51 bitrate=   9.8kbits/s speed=0.083x elapsed=0:00:06.22    \nframe=   34 fps=5.0 q=15.0 size=       1KiB time=00:00:00.55 bitrate=   9.2kbits/s speed=0.0811x elapsed=0:00:06.78    \nframe=   36 fps=4.9 q=15.0 size=       1KiB time=00:00:00.60 bitrate=   8.4kbits/s speed=0.0821x elapsed=0:00:07.31    \nframe=   38 fps=4.8 q=25.0 size=       1KiB time=00:00:00.63 bitrate=   8.0kbits/s speed=0.0804x elapsed=0:00:07.87    \nframe=   41 fps=4.9 q=15.0 size=       1KiB time=00:00:00.68 bitrate=   7.4kbits/s speed=0.081x elapsed=0:00:08.44    \nframe=   44 fps=4.9 q=27.0 size=       1KiB time=00:00:00.73 bitrate=   6.9kbits/s speed=0.0815x elapsed=0:00:09.00    \nframe=   46 fps=4.8 q=27.0 size=       1KiB time=00:00:00.76 bitrate=   6.6kbits/s speed=0.0801x elapsed=0:00:09.57    \nframe=   48 fps=4.7 q=29.0 size=       1KiB time=00:00:00.80 bitrate=   6.3kbits/s speed=0.0791x elapsed=0:00:10.10    \nframe=   51 fps=4.8 q=27.0 size=       1KiB time=00:00:00.85 bitrate=   6.0kbits/s speed=0.0799x elapsed=0:00:10.63    \nframe=   53 fps=4.7 q=31.0 size=       1KiB time=00:00:00.88 bitrate=   5.7kbits/s speed=0.0787x elapsed=0:00:11.21    \nframe=   56 fps=4.8 q=16.0 size=       1KiB time=00:00:00.93 bitrate=   5.4kbits/s speed=0.0795x elapsed=0:00:11.73    \nframe=   59 fps=4.8 q=31.0 size=       1KiB time=00:00:00.98 bitrate=   5.1kbits/s speed=0.0799x elapsed=0:00:12.30    \nframe=   61 fps=4.8 q=11.0 size=       1KiB time=00:00:01.01 bitrate=   5.0kbits/s speed=0.0792x elapsed=0:00:12.82    \nframe=   64 fps=4.8 q=27.0 size=       1KiB time=00:00:01.05 bitrate=   4.8kbits/s speed=0.0785x elapsed=0:00:13.37    \nframe=   67 fps=4.8 q=30.0 size=       1KiB time=00:00:01.11 bitrate=   4.5kbits/s speed=0.08x elapsed=0:00:13.96    \nframe=   70 fps=4.8 q=29.0 size=       1KiB time=00:00:01.16 bitrate=   4.3kbits/s speed=0.0802x elapsed=0:00:14.54    \nframe=   72 fps=4.8 q=32.0 size=       1KiB time=00:00:01.20 bitrate=   4.2kbits/s speed=0.0795x elapsed=0:00:15.09    \nframe=   75 fps=4.8 q=24.0 size=       1KiB time=00:00:01.25 bitrate=   4.1kbits/s speed=0.0799x elapsed=0:00:15.64    \nframe=   78 fps=4.8 q=20.0 size=       1KiB time=00:00:01.30 bitrate=   3.9kbits/s speed=0.0804x elapsed=0:00:16.17    \nframe=   81 fps=4.9 q=26.0 size=       1KiB time=00:00:01.35 bitrate=   3.8kbits/s speed=0.0808x elapsed=0:00:16.69    \nframe=   83 fps=4.8 q=31.0 size=       1KiB time=00:00:01.38 bitrate=   3.7kbits/s speed=0.0801x elapsed=0:00:17.26    \nframe=   84 fps=4.7 q=16.0 size=       1KiB time=00:00:01.40 bitrate=   3.6kbits/s speed=0.0788x elapsed=0:00:17.77    \nframe=   87 fps=4.8 q=19.0 size=       1KiB time=00:00:01.45 bitrate=   3.5kbits/s speed=0.0792x elapsed=0:00:18.29    \nframe=   90 fps=4.8 q=37.0 size=       1KiB time=00:00:01.50 bitrate=   3.4kbits/s speed=0.0796x elapsed=0:00:18.83    \nframe=   93 fps=4.8 q=20.0 size=       1KiB time=00:00:01.55 bitrate=   3.3kbits/s speed=0.0799x elapsed=0:00:19.40    \nframe=   96 fps=4.8 q=32.0 size=       1KiB time=00:00:01.60 bitrate=   3.2kbits/s speed=0.0802x elapsed=0:00:19.95    \nframe=   97 fps=4.7 q=11.0 size=       1KiB time=00:00:01.61 bitrate=   3.1kbits/s speed=0.0788x elapsed=0:00:20.52    \nframe=  100 fps=4.7 q=25.0 size=       1KiB time=00:00:01.66 bitrate=   3.0kbits/s speed=0.0791x elapsed=0:00:21.05    \nframe=  103 fps=4.8 q=32.0 size=       1KiB time=00:00:01.71 bitrate=   2.9kbits/s speed=0.0795x elapsed=0:00:21.60    \nframe=  106 fps=4.8 q=31.0 size=       1KiB time=00:00:01.76 bitrate=   2.9kbits/s speed=0.0797x elapsed=0:00:22.16    \nframe=  108 fps=4.8 q=30.0 size=       1KiB time=00:00:01.80 bitrate=   2.8kbits/s speed=0.0794x elapsed=0:00:22.67    \nframe=  111 fps=4.8 q=25.0 size=       1KiB time=00:00:01.85 bitrate=   2.7kbits/s speed=0.0798x elapsed=0:00:23.19    \nframe=  114 fps=4.8 q=27.0 size=       1KiB time=00:00:01.90 bitrate=   2.7kbits/s speed=0.0802x elapsed=0:00:23.70    \nframe=  117 fps=4.8 q=27.0 size=       1KiB time=00:00:01.95 bitrate=   2.6kbits/s speed=0.0805x elapsed=0:00:24.22    \nframe=  119 fps=4.8 q=8.0 size=       1KiB time=00:00:01.98 bitrate=   2.6kbits/s speed=0.08x elapsed=0:00:24.78    \nframe=  123 fps=4.9 q=23.0 size=       1KiB time=00:00:02.05 bitrate=   2.5kbits/s speed=0.0809x elapsed=0:00:25.34    \nframe=  127 fps=4.9 q=22.0 size=       1KiB time=00:00:02.11 bitrate=   2.4kbits/s speed=0.0816x elapsed=0:00:25.93    \nframe=  129 fps=4.9 q=8.0 size=       1KiB time=00:00:02.15 bitrate=   2.4kbits/s speed=0.0812x elapsed=0:00:26.47    \nframe=  133 fps=4.9 q=22.0 size=    3328KiB time=00:00:02.21 bitrate=12299.1kbits/s speed=0.0819x elapsed=0:00:27.05    \nframe=  137 fps=5.0 q=24.0 size=    3328KiB time=00:00:02.28 bitrate=11940.0kbits/s speed=0.0827x elapsed=0:00:27.61    \nframe=  139 fps=4.9 q=23.0 size=    3328KiB time=00:00:02.31 bitrate=11768.2kbits/s speed=0.0823x elapsed=0:00:28.15    \nframe=  142 fps=5.0 q=23.0 size=    3328KiB time=00:00:02.36 bitrate=11519.6kbits/s speed=0.0825x elapsed=0:00:28.67    \nframe=  144 fps=4.9 q=23.0 size=    3328KiB time=00:00:02.40 bitrate=11359.6kbits/s speed=0.0821x elapsed=0:00:29.21    \nframe=  147 fps=4.9 q=19.0 size=    3328KiB time=00:00:02.45 bitrate=11127.7kbits/s speed=0.0823x elapsed=0:00:29.77    \nframe=  150 fps=4.9 q=20.0 size=    3328KiB time=00:00:02.50 bitrate=10905.2kbits/s speed=0.0824x elapsed=0:00:30.34    \nframe=  152 fps=4.9 q=10.0 size=    3328KiB time=00:00:02.53 bitrate=10761.7kbits/s speed=0.0821x elapsed=0:00:30.85    \nframe=  155 fps=4.9 q=21.0 size=    3328KiB time=00:00:02.58 bitrate=10553.4kbits/s speed=0.0823x elapsed=0:00:31.39    \nframe=  158 fps=4.9 q=20.0 size=    3328KiB time=00:00:02.63 bitrate=10353.0kbits/s speed=0.0825x elapsed=0:00:31.92    \nframe=  161 fps=5.0 q=20.0 size=    3328KiB time=00:00:02.68 bitrate=10160.1kbits/s speed=0.0827x elapsed=0:00:32.44    \nframe=  163 fps=4.9 q=21.0 size=    3328KiB time=00:00:02.71 bitrate=10035.5kbits/s speed=0.0823x elapsed=0:00:32.98    \nframe=  165 fps=4.9 q=21.0 size=    3328KiB time=00:00:02.75 bitrate=9913.8kbits/s speed=0.082x elapsed=0:00:33.53    \nframe=  168 fps=4.9 q=16.0 size=    3328KiB time=00:00:02.80 bitrate=9736.8kbits/s speed=0.0823x elapsed=0:00:34.04    \nframe=  171 fps=4.9 q=20.0 size=    3328KiB time=00:00:02.85 bitrate=9566.0kbits/s speed=0.0824x elapsed=0:00:34.57    \nframe=  174 fps=5.0 q=18.0 size=    3328KiB time=00:00:02.90 bitrate=9401.0kbits/s speed=0.0826x elapsed=0:00:35.11    \nframe=  176 fps=4.9 q=9.0 size=    3328KiB time=00:00:02.93 bitrate=9294.2kbits/s speed=0.0823x elapsed=0:00:35.65    \nframe=  179 fps=4.9 q=18.0 size=    3328KiB time=00:00:02.98 bitrate=9138.4kbits/s speed=0.0824x elapsed=0:00:36.18    \nframe=  182 fps=5.0 q=18.0 size=    3328KiB time=00:00:03.03 bitrate=8987.8kbits/s speed=0.0826x elapsed=0:00:36.71    \nframe=  185 fps=5.0 q=19.0 size=    3328KiB time=00:00:03.08 bitrate=8842.0kbits/s speed=0.0827x elapsed=0:00:37.26    \nframe=  187 fps=4.9 q=20.0 size=    3328KiB time=00:00:03.11 bitrate=8747.5kbits/s speed=0.0825x elapsed=0:00:37.79    \nframe=  190 fps=5.0 q=19.0 size=    3328KiB time=00:00:03.16 bitrate=8609.4kbits/s speed=0.0825x elapsed=0:00:38.36    \nframe=  193 fps=5.0 q=25.0 size=    3328KiB time=00:00:03.21 bitrate=8475.5kbits/s speed=0.0827x elapsed=0:00:38.88    \nframe=  196 fps=5.0 q=22.0 size=    3328KiB time=00:00:03.26 bitrate=8345.8kbits/s speed=0.0829x elapsed=0:00:39.40    \nframe=  199 fps=5.0 q=23.0 size=    3328KiB time=00:00:03.31 bitrate=8220.0kbits/s speed=0.0831x elapsed=0:00:39.93    \nframe=  201 fps=5.0 q=23.0 size=    3328KiB time=00:00:03.35 bitrate=8138.2kbits/s speed=0.0827x elapsed=0:00:40.48    \nframe=  205 fps=5.0 q=28.0 size=    3328KiB time=00:00:03.41 bitrate=7979.4kbits/s speed=0.0833x elapsed=0:00:41.01    \nframe=  208 fps=5.0 q=27.0 size=    3328KiB time=00:00:03.46 bitrate=7864.3kbits/s speed=0.0834x elapsed=0:00:41.56    \nframe=  211 fps=5.0 q=31.0 size=    3328KiB time=00:00:03.51 bitrate=7752.5kbits/s speed=0.0834x elapsed=0:00:42.14    \nframe=  213 fps=5.0 q=31.0 size=    3328KiB time=00:00:03.55 bitrate=7679.7kbits/s speed=0.0831x elapsed=0:00:42.74    \nframe=  216 fps=5.0 q=26.0 size=    3328KiB time=00:00:03.60 bitrate=7573.0kbits/s speed=0.0832x elapsed=0:00:43.25    \nframe=  220 fps=5.0 q=26.0 size=    3328KiB time=00:00:03.66 bitrate=7435.4kbits/s speed=0.0837x elapsed=0:00:43.79    \nframe=  223 fps=5.0 q=25.0 size=    3328KiB time=00:00:03.71 bitrate=7335.3kbits/s speed=0.0838x elapsed=0:00:44.35    \nframe=  225 fps=5.0 q=25.0 size=    3328KiB time=00:00:03.75 bitrate=7270.1kbits/s speed=0.0835x elapsed=0:00:44.89    \nframe=  228 fps=5.0 q=21.0 size=    3328KiB time=00:00:03.80 bitrate=7174.5kbits/s speed=0.0837x elapsed=0:00:45.42    \nframe=  232 fps=5.0 q=24.0 size=    3328KiB time=00:00:03.86 bitrate=7050.8kbits/s speed=0.0841x elapsed=0:00:45.96    \nframe=  235 fps=5.1 q=23.0 size=    3328KiB time=00:00:03.91 bitrate=6960.8kbits/s speed=0.0842x elapsed=0:00:46.51    \nframe=  237 fps=5.0 q=30.0 size=    3328KiB time=00:00:03.95 bitrate=6902.0kbits/s speed=0.084x elapsed=0:00:47.04    \nframe=  241 fps=5.1 q=27.0 size=    3328KiB time=00:00:04.01 bitrate=6787.5kbits/s speed=0.0844x elapsed=0:00:47.57    \nframe=  244 fps=5.1 q=26.0 size=    3328KiB time=00:00:04.06 bitrate=6704.0kbits/s speed=0.0845x elapsed=0:00:48.12    \nframe=  246 fps=5.1 q=7.0 size=    3328KiB time=00:00:04.10 bitrate=6649.5kbits/s speed=0.0843x elapsed=0:00:48.63    \nframe=  250 fps=5.1 q=18.0 size=    3328KiB time=00:00:04.16 bitrate=6543.1kbits/s speed=0.0847x elapsed=0:00:49.19    \nframe=  253 fps=5.1 q=27.0 size=    3328KiB time=00:00:04.21 bitrate=6465.5kbits/s speed=0.0848x elapsed=0:00:49.72    \nframe=  256 fps=5.1 q=15.0 size=    3328KiB time=00:00:04.26 bitrate=6389.8kbits/s speed=0.0849x elapsed=0:00:50.25    \nframe=  258 fps=5.1 q=20.0 size=    6400KiB time=00:00:04.30 bitrate=12192.7kbits/s speed=0.0846x elapsed=0:00:50.81    \nframe=  262 fps=5.1 q=20.0 size=    6400KiB time=00:00:04.36 bitrate=12006.6kbits/s speed=0.085x elapsed=0:00:51.36    \nframe=  265 fps=5.1 q=20.0 size=    6400KiB time=00:00:04.41 bitrate=11870.7kbits/s speed=0.085x elapsed=0:00:51.93    \nframe=  268 fps=5.1 q=21.0 size=    6400KiB time=00:00:04.46 bitrate=11737.8kbits/s speed=0.0851x elapsed=0:00:52.46    \nframe=  270 fps=5.1 q=21.0 size=    6400KiB time=00:00:04.50 bitrate=11650.8kbits/s speed=0.0849x elapsed=0:00:53.02    \nframe=  273 fps=5.1 q=18.0 size=    6400KiB time=00:00:04.55 bitrate=11522.8kbits/s speed=0.085x elapsed=0:00:53.55    \nframe=  276 fps=5.1 q=20.0 size=    6400KiB time=00:00:04.60 bitrate=11397.6kbits/s speed=0.085x elapsed=0:00:54.10    \nframe=  276 fps=5.1 q=20.0 size=    6400KiB time=00:00:04.60 bitrate=11397.6kbits/s speed=0.0842x elapsed=0:00:54.62    \nframe=  276 fps=5.0 q=20.0 size=    6400KiB time=00:00:04.60 bitrate=11397.6kbits/s speed=0.0834x elapsed=0:00:55.16    \nframe=  276 fps=5.0 q=20.0 size=    6400KiB time=00:00:04.60 bitrate=11397.6kbits/s speed=0.0826x elapsed=0:00:55.72    \nframe=  276 fps=4.9 q=20.0 size=    6400KiB time=00:00:04.60 bitrate=11397.6kbits/s speed=0.0817x elapsed=0:00:56.27    \nframe=  276 fps=4.9 q=20.0 size=    6400KiB time=00:00:04.60 bitrate=11397.6kbits/s speed=0.081x elapsed=0:00:56.80    \nframe=  276 fps=4.8 q=20.0 size=    6400KiB time=00:00:04.60 bitrate=11397.6kbits/s speed=0.0802x elapsed=0:00:57.37    \nframe=  276 fps=4.8 q=20.0 size=    6400KiB time=00:00:04.60 bitrate=11397.6kbits/s speed=0.0794x elapsed=0:00:57.95    \nframe=  276 fps=4.7 q=20.0 size=    6400KiB time=00:00:04.60 bitrate=11397.6kbits/s speed=0.0786x elapsed=0:00:58.52    \n[out#0/webm @ 0000026c6b651280] video:7729KiB audio:0KiB subtitle:0KiB other streams:0KiB global headers:0KiB muxing overhead: 0.037815%\nframe=  300 fps=5.1 q=23.0 Lsize=    7732KiB time=00:00:05.00 bitrate=12668.5kbits/s speed=0.0848x elapsed=0:00:58.93    \n",
  "seconds": 59.34679365158081,
  "probe_out": {}
}